<?xml version="1.0" encoding="iso-8859-1"?>
<!-- Generator: Adobe Illustrator 19.0.0, SVG Export Plug-In . SVG Version: 6.00 Build 0)  -->
<svg xmlns="http://www.w3.org/2000/svg" xmlns:xlink="http://www.w3.org/1999/xlink" version="1.1" id="Capa_1" x="0px" y="0px" viewBox="0 0 505.048 505.048" style="enable-background:new 0 0 505.048 505.048;" xml:space="preserve" width="512" height="512">
<g>
	<polygon style="fill:#E95B2D;" points="339.612,104.296 165.436,104.296 12.135,410.932 492.913,410.932  "/>
	<polyline style="fill:#FABA45;" points="221.49,215.761 318.739,410.93 318.74,410.932 12.135,410.932 165.436,104.296    212.395,197.917  "/>
	<path style="fill:#E95B2D;" d="M103.462,104.297c0,25.217-20.444,45.665-45.664,45.665c-25.223,0-45.663-20.448-45.663-45.665   c0-25.221,20.44-45.666,45.663-45.666C83.018,58.631,103.462,79.077,103.462,104.297z"/>
	<path style="fill:#0F2639;" d="M344.248,96.796H160.8L0,418.432h505.048L344.248,96.796z M157.936,136.071v196.424h-27.582v15   h27.582v27.951h15v-27.951h27.585v-15h-27.585V135.977l32.756,65.303l13.408-6.725l-41.511-82.758h157.388l145.802,291.636H323.383   l-95.18-191.016l-13.426,6.689l91.847,184.326H24.27L157.936,136.071z"/>
	<rect x="404.295" y="438.917" style="fill:#0F2639;" width="100.753" height="15"/>
	<rect x="0.001" y="438.917" style="fill:#0F2639;" width="385.298" height="15"/>
	<path style="fill:#0F2639;" d="M57.798,157.462c29.314,0,53.164-23.85,53.164-53.165c0-29.316-23.85-53.166-53.164-53.166   c-29.314,0-53.163,23.85-53.163,53.166C4.635,133.613,28.483,157.462,57.798,157.462z M57.798,66.131   c21.044,0,38.164,17.121,38.164,38.166c0,21.044-17.12,38.165-38.164,38.165c-21.043,0-38.163-17.121-38.163-38.165   C19.635,83.252,36.755,66.131,57.798,66.131z"/>
</g>















</svg>
